<svg xmlns="http://www.w3.org/2000/svg" xmlns:xlink="http://www.w3.org/1999/xlink" width="1800pt" height="755pt" viewBox="0 0 1800 755" version="1.1">
 <g id="surface1">
  <path style=" stroke:none;fill-rule:nonzero;fill:rgb(92.89856%,10.998535%,14.099121%);fill-opacity:1;" d="M 1136.449219 185.800781 L 1076.359375 185.800781 L 1076.359375 521.871094 C 1130.96875 523.75 1185.351563 526.507813 1239.511719 530.117188 L 1239.511719 470.90625 C 1205.25 468.621094 1170.898438 466.6875 1136.449219 465.082031 Z M 1614 185.835938 L 1547.988281 185.835938 L 1504.480469 286.6875 L 1465.390625 185.835938 L 1400.371094 185.835938 L 1470.238281 366.042969 L 1393.96875 542.832031 C 1415.070313 544.890625 1436.109375 547.085938 1457.128906 549.40625 L 1501.488281 446.613281 L 1545.421875 559.925781 C 1568.300781 562.867188 1591.121094 565.9375 1613.898438 569.191406 L 1614 569.152344 L 1535.71875 367.261719 Z M 870.085938 518.933594 L 930.179688 518.921875 L 930.179688 382.21875 L 1011.640625 382.21875 L 1011.640625 323.007813 L 930.179688 323.007813 L 930.179688 245.582031 L 1037.839844 245.582031 L 1037.839844 185.839844 L 870.085938 185.839844 Z M 645.6875 245.578125 L 708.582031 245.578125 L 708.582031 522.453125 C 728.578125 521.699219 748.613281 521.078125 768.671875 520.554688 L 768.671875 245.578125 L 831.5625 245.578125 L 831.5625 185.835938 L 645.6875 185.835938 Z M 440.246094 539.664063 C 495.632813 534.632813 551.273438 530.484375 607.164063 527.265625 L 607.164063 468.046875 C 571.453125 470.113281 535.84375 472.554688 500.339844 475.347656 L 500.339844 385.707031 C 523.636719 385.476563 554.3125 384.765625 581.488281 385.101563 L 581.488281 325.886719 C 559.777344 325.835938 524.882813 326.191406 500.339844 326.503906 L 500.339844 245.582031 L 607.164063 245.582031 L 607.164063 185.839844 L 440.246094 185.839844 Z M 322.371094 402.78125 L 244.105469 185.835938 L 186.996094 185.835938 L 186.996094 569.199219 C 206.988281 566.351563 227.019531 563.628906 247.089844 561.011719 L 247.089844 352.542969 L 316.679688 552.453125 C 338.566406 549.914063 360.492188 547.511719 382.464844 545.25 L 382.464844 185.835938 L 322.371094 185.835938 Z M 1289.050781 533.683594 C 1309.109375 535.21875 1329.140625 536.863281 1349.148438 538.644531 L 1349.148438 185.835938 L 1289.050781 185.835938 L 1289.050781 533.683594 ">
  </path>
 </g>
</svg>